<svg width="31" height="28" viewBox="0 0 31 28" fill="none" xmlns="http://www.w3.org/2000/svg">
<path d="M10.57 23.1673C10.5629 23.1613 10.5557 23.1553 10.5485 23.1495C10.3886 23.0202 10.2266 22.8897 10.063 22.7579C8.1173 21.1901 5.93896 19.4348 4.18587 17.4238C2.28773 15.2465 1 12.8923 1 10.3091C1 7.73662 1.91303 5.30989 3.46785 3.60004L3.46956 3.59816C4.87992 2.03922 6.8361 1.25455 8.804 1.25455C11.1192 1.25455 13.0848 2.14862 14.6361 3.85459C14.8337 4.07182 15.1167 4.19127 15.4102 4.18123C15.7036 4.1712 15.9778 4.03271 16.1601 3.80249C17.5831 2.00489 19.6507 1 21.948 1H22.072C26.243 1 29.8802 4.88808 30 9.93853C29.9968 12.6207 28.8455 14.9531 27.1209 17.11C25.5645 19.0566 23.6057 20.7845 21.7078 22.4587C21.486 22.6544 21.2649 22.8493 21.0455 23.0438C18.9562 24.8095 17.3919 26.0067 16.0789 26.8643C15.9447 26.952 15.835 26.978 15.764 26.9796C15.7036 26.9809 15.6418 26.9667 15.567 26.9091C14.8755 26.3768 14.1912 25.8887 13.5307 25.4176C13.3505 25.289 13.172 25.1617 12.9957 25.0352C12.165 24.4389 11.3649 23.8472 10.57 23.1673Z" stroke="#6E6E6E" stroke-width="2" stroke-linejoin="round"/>
</svg>
