<svg width="137" height="29" viewBox="0 0 137 29" fill="none" xmlns="http://www.w3.org/2000/svg">
<path d="M14.8815 12.6048V26.9118L21.3934 29V12.6048H25.5782V26.9118L32.0487 29L36.2749 23.197H32.09V9.08284L25.6195 6.81307L21.3934 11.8482V9.10175L14.9228 6.83199L10.6967 11.8482V9.10175L4.22613 6.83199L0 12.6048H4.18859V26.9118L10.6967 28.9962V12.6048H14.8815ZM84.7702 23.197V8.8899L78.2546 6.80173V26.7151L84.7252 28.9849L88.9551 23.9536V26.7L95.4256 28.9697L99.648 23.197H95.4631V8.8899L88.9551 6.80173V23.197H84.7702ZM132.811 9.66541L126.457 6.80173L118.921 10.4371L126.457 13.297L116.102 18.3624V26.6357L122.61 28.9962L126.457 23.9309V26.7151L132.965 28.9849L137 23.144H132.804L132.811 9.66541ZM44.6933 28.9962L52.1547 25.9699L44.6933 23.1478V19.0963L54.478 14.3033L48.9195 6.80173L38.1853 12.0222V26.1704L44.6933 28.9962ZM114.695 22.7317L106.779 20.2955L114.192 10.7133L104.902 6.80173L100.023 13.0663L107.98 15.5403L100.399 25.0884L109.782 28.9962L114.695 22.7317ZM122.603 23.197V17.4734L126.45 15.6311V23.197H122.603ZM44.6858 10.5544L47.9624 15.1166L44.6858 16.7017V10.5544ZM56.1444 26.1704L62.6525 28.9962L73.3492 24.6648V7.53562L56.1444 0V6.67689L66.8411 10.9667V24.7101L62.6525 23.1629V11.0916L56.1444 13.1798V26.1704Z" fill="black"/>
</svg>
